<svg width="100%" height="100%" viewBox="0 0 69 69">
	<path fill="#000000" d="M31.96,20.108c0.819-0.503,5.232-2.849,12.354,0.091c7.325,3.022,11.87,0.397,12.434,0.04
		c-1.771-2.911-3.876-5.445-6.206-7.148c0.156-0.043,0.314-0.086,0.481-0.135c3.088-0.894,3.872-3.508,4.038-5.747
		c0.186-2.54,0.315-2.579,0.867-4.864c0.53-2.194-0.061-2.633-0.605-2.19c-0.293,0.238-2.846,0.828-4.36,2.008
		c-2.444,1.908-3.951,5.534-4.634,7.539c-0.013,0.031-0.105,0.31-0.136,0.406c-0.318,0.768-0.953,0.766-0.953,0.766v0
		c-0.308-0.034-0.616-0.051-0.927-0.051c-0.277,0-0.553,0.015-0.829,0.041c-0.006,0.001-0.009,0-0.016,0
		c-0.81,0.12-1.256-0.87-1.349-1.105c-0.947-2.72-3.494-8.082-9.22-9.524c0,0-1.04-0.796-0.723,0.551
		c0.302,1.287,0.925,2.588,0.787,4.481c-0.063,0.874-0.605,5.354,3.512,7.685c0.391,0.222,0.738,0.408,1.051,0.564
		C35.455,15.176,33.572,17.486,31.96,20.108z"/>
	<path fill="#000000" d="M58.992,61.077c-5.045-3.126-6.743-4.226-6.637-5.422c0,0,0.001-0.194,0.05-0.49
		c0.123-0.635,0.511-1.717,1.747-2.334c0.04-0.021,0.075-0.043,0.106-0.066c3.931-2.281,6.803-5.954,7.816-10.539
		c-1.021,2.532-8.58,4.5-17.761,4.5c-9.179,0-16.74-1.968-17.759-4.5c0.227,1.028,0.55,2.011,0.956,2.943
		c0.341,1.92,0.8,6.44-1.371,10.398c-1.913,3.485-11.355,8.237-25.369,5.51c0,0-0.562-0.394-0.732-0.07
		c-0.251,0.479,0.778,0.863,1.837,1.143c9.756,2.585,24.483,1.533,29.108-2.277c2.11-1.736,2.923-4.077,3.131-6.595l0.002,0.004
		c0,0,0.056-0.661,0.881-0.165c0.237,0.143,1.09,0.698,1.226,1.326c0.119,0.893,0.126,1.989-0.334,2.759
		c-0.66,1.098-0.667,1.256,0.201,1.877c0.534,0.381,2.711,1.981,5.741,3.802c0.007,0.005,0.011,0.01,0.02,0.014
		c0.641,0.386,1.531,1.331,1.531,1.331l0,0c1.365,1.578,4.334,4.755,5.625,4.157c0.61-0.282-0.026-1.555-0.026-1.555
		s1.015,1.317,1.56,0.869c0.416-0.343-0.242-1.656-0.242-1.656s0.885,0.77,1.414,0.484c0.644-0.347-0.096-2.365-5.167-5.447
		c-5.073-3.085-6.448-3.559-6.57-4.936c0,0-0.002-0.069,0.003-0.188c0.039-0.304,0.212-0.947,0.949-0.878
		c1.098,0.178,2.229,0.272,3.389,0.272c1.326,0,2.618-0.121,3.863-0.354l0.001,0.002c0,0,0.065-0.013,0.084-0.016
		c0.146-0.019,0.429-0.01,0.43,0.344c-0.046,0.447-0.169,0.897-0.432,1.291c-0.743,1.112-0.499,1.264,0.275,1.979
		c0.479,0.441,2.672,2.37,5.676,4.236c0.006,0.005,0.008,0.009,0.016,0.013c0.641,0.386,1.749,1.443,1.749,1.443l0,0
		c1.244,1.264,3.534,3.381,4.782,3.254c0.843-0.087,0.156-1.54,0.156-1.54s1.065,1.028,1.589,0.727
		c0.584-0.338-0.243-1.412-0.243-1.412s0.686,0.363,1.17,0.242S64.037,64.201,58.992,61.077z"/>
	<path fill="#000000" d="M53.355,25.754c-0.605,0-1.108,0.183-1.493,0.542c-0.39,0.364-0.587,0.785-0.587,1.25v8.231
		c0,1.105-0.195,1.919-0.582,2.421c-0.373,0.484-0.969,0.721-1.822,0.721c-0.874,0-1.468-0.234-1.82-0.716
		c-0.367-0.502-0.553-1.317-0.553-2.426v-8.263c0-0.562-0.256-1.022-0.742-1.331c-0.66-0.416-1.317-0.567-2.116-0.301
		c-0.244,0.081-0.473,0.188-0.683,0.316c-0.224,0.135-0.412,0.305-0.561,0.504c-0.165,0.221-0.249,0.462-0.249,0.715v8.359
		c0,1.106-0.186,1.923-0.553,2.425c-0.353,0.482-0.948,0.717-1.819,0.717c-0.874,0-1.475-0.235-1.837-0.719
		c-0.376-0.502-0.567-1.317-0.567-2.423v-8.231c0-0.464-0.198-0.885-0.588-1.25c-0.385-0.359-0.897-0.542-1.524-0.542
		c-0.645,0-1.177,0.181-1.581,0.536c-0.416,0.364-0.626,0.787-0.626,1.256v8.104c0,1.019,0.1,1.983,0.295,2.864
		c0.201,0.901,0.552,1.691,1.044,2.352c0.495,0.665,1.169,1.19,2.002,1.563c0.823,0.366,1.854,0.553,3.063,0.553
		c1.26,0,2.315-0.233,3.135-0.693c0.688-0.387,1.268-0.895,1.728-1.514c0.444,0.619,1.01,1.127,1.689,1.513
		c0.811,0.461,1.881,0.694,3.184,0.694c1.208,0,2.235-0.188,3.05-0.554c0.82-0.373,1.487-0.898,1.984-1.562
		c0.493-0.662,0.843-1.453,1.043-2.352c0.196-0.881,0.295-1.846,0.295-2.864v-8.104c0-0.466-0.205-0.888-0.607-1.253
		C54.561,25.935,54.022,25.754,53.355,25.754z"/>
</svg>
